<svg xmlns="http://www.w3.org/2000/svg" viewBox="0 0 112 113.528">
  <defs>
    <style>
      .cls-1 {
        opacity: 0.25;
      }
    </style>
  </defs>
  <g id="Group_18" data-name="Group 18" class="cls-1" transform="translate(-1053 -180)">
    <path id="Path_19" data-name="Path 19" d="M55.941,0A55.889,55.889,0,0,0,11.635,90.023L3.761,108.239a3.829,3.829,0,0,0,.47,3.878,3.79,3.79,0,0,0,3.056,1.41h.705l29.028-5.054a54.994,54.994,0,0,0,19.039,3.291A55.883,55.883,0,1,0,55.941,0Zm0,104.243a48.363,48.363,0,0,1-17.276-3.173,3.772,3.772,0,0,0-2-.235l-23.035,4,5.994-13.868a3.842,3.842,0,0,0-.588-4,48.3,48.3,0,1,1,36.9,17.276Z" transform="translate(1053 180)"/>
    <path id="Path_20" data-name="Path 20" d="M49.818,26.027h0a3.86,3.86,0,0,0-4.231,1.293L36.3,39.659H26.078A3.913,3.913,0,0,0,22.2,43.538V60.931a3.913,3.913,0,0,0,3.878,3.878H36.3l9.167,12.34a3.9,3.9,0,0,0,3.056,1.528,3.476,3.476,0,0,0,1.175-.235A3.815,3.815,0,0,0,52.286,74.8V29.67A3.667,3.667,0,0,0,49.818,26.027ZM44.765,63.4l-3.526-4.7a3.9,3.9,0,0,0-3.056-1.528H29.839V47.416h8.344a3.9,3.9,0,0,0,3.056-1.528l3.526-4.7Z" transform="translate(1056.89 184.53)"/>
    <path id="Path_21" data-name="Path 21" d="M76.75,41.478a3.4,3.4,0,0,0-1.175-2.7,3.826,3.826,0,0,0-2.7-1.175,3.4,3.4,0,0,0-2.7,1.175l-5.994,5.994-5.994-5.994a3.826,3.826,0,0,0-2.7-1.175,3.4,3.4,0,0,0-2.7,1.175,3.826,3.826,0,0,0-1.175,2.7,3.4,3.4,0,0,0,1.175,2.7l5.994,5.994-5.994,5.994a3.826,3.826,0,0,0-1.175,2.7,3.4,3.4,0,0,0,1.175,2.7,3.826,3.826,0,0,0,2.7,1.175,3.4,3.4,0,0,0,2.7-1.175l5.994-5.994,5.994,5.994a3.826,3.826,0,0,0,2.7,1.175,3.4,3.4,0,0,0,2.7-1.175,3.826,3.826,0,0,0,1.175-2.7,3.4,3.4,0,0,0-1.175-2.7L69.7,50.175l5.994-5.994A3.723,3.723,0,0,0,76.75,41.478Z" transform="translate(1062.042 186.589)"/>
  </g>
</svg>
