<svg id="Group_1" data-name="Group 1" xmlns="http://www.w3.org/2000/svg" viewBox="0 0 16 16.256">
  <defs>
    <style>
      .cls-1 {
        fill: #f51d0a;
      }
    </style>
  </defs>
  <path id="Path_4" data-name="Path 4" class="cls-1" d="M8,0A8,8,0,0,0,1.664,12.88L.544,15.488a.546.546,0,0,0,.08.56.562.562,0,0,0,.432.208.2.2,0,0,0,.1-.016l4.128-.72A7.855,7.855,0,0,0,8,16,8,8,0,1,0,8,0ZM8,14.912a7.147,7.147,0,0,1-2.464-.448.6.6,0,0,0-.288-.032l-3.3.576L2.8,13.024a.575.575,0,0,0-.08-.576A6.9,6.9,0,1,1,8,14.912Z"/>
  <path id="Path_5" data-name="Path 5" class="cls-1" d="M27.252,27.138h0a.531.531,0,0,0-.608.192l-1.328,1.776H23.844a.54.54,0,0,0-.544.544v2.48a.54.54,0,0,0,.544.544h1.472l1.328,1.776a.531.531,0,0,0,.432.224.681.681,0,0,0,.176-.032.548.548,0,0,0,.368-.512V27.666A.553.553,0,0,0,27.252,27.138Zm-.72,5.344-.512-.672a.531.531,0,0,0-.432-.224H24.4V30.194h1.184a.51.51,0,0,0,.432-.224l.512-.672Z" transform="translate(-19.572 -22.77)"/>
  <path id="Path_6" data-name="Path 6" class="cls-1" d="M58.052,40.144a.543.543,0,0,0-.928-.384l-.848.848-.848-.848a.543.543,0,1,0-.768.768l.848.848-.848.848a.543.543,0,1,0,.768.768l.848-.848.848.848a.543.543,0,1,0,.768-.768l-.848-.848.848-.848A.5.5,0,0,0,58.052,40.144Z" transform="translate(-45.78 -33.264)"/>
</svg>
